<?xml version="1.0" encoding="utf-8"?>
<!-- Generator: Adobe Illustrator 21.0.0, SVG Export Plug-In . SVG Version: 6.00 Build 0)  -->
<svg version="1.1" id="Layer_1" xmlns="http://www.w3.org/2000/svg" xmlns:xlink="http://www.w3.org/1999/xlink" x="0px" y="0px"
	 width="200px" height="50px" viewBox="0 0 200 50" style="enable-background:new 0 0 200 50;" xml:space="preserve">
<style type="text/css">
	.st0{fill:#29ABE2;}
</style>
<g>
	<path class="st0" d="M42.2,26.9c0-6.5,4.8-10.8,10-10.8c3.1,0,5.3,1.8,5.3,4.2c0,2.3-1.3,3.9-3.2,3.9c-1.4,0-1.8-0.9-1.8-0.9
		s1.4-1.2,1.4-3.6c0-1.1-0.7-1.7-1.7-1.7c-2.3,0-5,3.2-5,8.2c0,3.5,2,5.7,5.5,5.7c3.8,0,6.2-2,7.2-3.6c0.5,0,0.8,0.3,0.6,1
		c-0.4,1.7-3.9,5.6-9.7,5.6C45.7,34.9,42.2,31.7,42.2,26.9z"/>
	<path class="st0" d="M76.5,23.3c0,0.8-0.1,1.6-0.2,2.4c2.8-0.4,4.5-2.9,4.5-2.9c0.5,0,0.8,0.4,0.7,0.9c-0.2,1.3-2.6,3.3-5.6,3.7
		c-1.3,4.5-4.7,7.5-9.8,7.5c-4,0-6.9-2.5-6.9-7.2c0-6.8,4-11.6,10.4-11.6C73.9,16.1,76.5,19,76.5,23.3z M71.6,20.8
		c-0.2-1.9-1.1-2.9-2.4-2.9c-1.9,0-3.8,1.9-4.9,7.5c-0.2,1-0.3,2.9-0.3,3.9c0,2.4,0.9,3.7,2.5,3.7c2,0,3.7-2.1,4.7-6.6
		c-0.9-0.7-1.4-1.7-1.4-3C69.7,22.1,70.4,21.1,71.6,20.8z"/>
	<path class="st0" d="M90.4,30.6c-1.6,2.8-3.6,4.3-5.8,4.3c-3.1,0-5.5-2.1-5.5-6.5c0-8.4,4.9-12.3,9.3-12.3c1.8,0,3,0.6,3.9,1.7
		l1.8-10.5c0.4-2.4,0-3.2,0-3.2s0.6-0.3,2-0.3c2.9,0,3.2,1.1,2.8,3.7l-3.6,20.9c-0.4,2.3,0.3,3.3,1.6,3.3c1.3,0,3-1.2,3.9-3.3
		c0.5,0,0.8,0.3,0.7,1c-0.4,2-3.1,5.6-6.7,5.6C92.3,34.9,90.5,33.3,90.4,30.6z M91.5,22.2l0.3-1.8c-0.3-0.8-1.1-1.8-2.5-1.8
		c-2.6,0-5.4,3.8-5.4,9.8c0,2.1,0.8,3.1,2.2,3.1C88.8,31.6,90.8,26,91.5,22.2z"/>
	<path class="st0" d="M100,26.7c0-6.6,5.1-10.7,10.1-10.7c3.8,0,5.4,2,5.4,3.9c0,3.4-3.9,5.7-10.6,6.9c0.2,2.8,2.2,5,5.4,5
		c4,0,6.3-2,7.3-3.6c0.5,0,0.8,0.3,0.6,1c-0.3,1.7-3.9,5.6-9.7,5.6C103.6,34.9,100,31.8,100,26.7z M105,25.1
		c4.6-1.1,6.5-3.4,6.5-5.9c0-0.8-0.5-1.3-1.3-1.3C108,18,105.4,20.4,105,25.1z"/>
	<path class="st0" d="M119.8,16.1l0.6-3.7c1.1-6.3,4.1-8.7,8.3-8.7c5.5,0,7.2,3.2,6.3,8.3l-2.9,16.3c-0.4,2.2,0.3,3.3,1.6,3.3
		c1.5,0,3.2-1.2,4.2-3.3c0.5,0,0.8,0.3,0.7,1c-0.4,2-3.3,5.6-6.9,5.6c-2.6,0-4.4-1.7-4.4-4.7c0-0.8,0.1-2.1,0.3-3.6l2.4-13.9
		c0.3-2,0.6-3.6,0.6-4.5c0-2-0.7-2.6-1.9-2.6c-1.2,0-2.6,1.2-3.2,5.3l-0.9,5.3h2.9c0,0,0.3,0.3,0.3,0.8c0,0.6-0.5,1.1-1.3,1.1h-2.3
		l-4.1,23.4c-0.9,4.9-4,6.6-7.2,6.6c-2,0-2-0.9-2-2.1c0-0.8,0.3-1.1,0.3-1.1s0.5,0.5,1.3,0.5c1.4,0,2.3-0.9,2.9-3.9l4.1-23.4h-2.4
		c0,0-0.3-0.3-0.3-0.8c0-0.6,0.5-1.1,1.3-1.1H119.8z"/>
	<path class="st0" d="M154.5,23.3c0,0.8-0.1,1.6-0.2,2.4c2.8-0.4,4.5-2.9,4.5-2.9c0.5,0,0.8,0.4,0.7,0.9c-0.2,1.3-2.6,3.3-5.6,3.7
		c-1.3,4.5-4.7,7.5-9.8,7.5c-4,0-6.9-2.5-6.9-7.2c0-6.8,4-11.6,10.4-11.6C152,16.1,154.5,19,154.5,23.3z M149.7,20.8
		c-0.2-1.9-1.1-2.9-2.4-2.9c-1.9,0-3.8,1.9-4.9,7.5c-0.2,1-0.3,2.9-0.3,3.9c0,2.4,0.9,3.7,2.5,3.7c2,0,3.7-2.1,4.7-6.6
		c-0.9-0.7-1.4-1.7-1.4-3C147.8,22.1,148.4,21.1,149.7,20.8z"/>
	<path class="st0" d="M169.6,30.7c-1.5,2.4-3.5,4.2-6.1,4.2c-3.8,0-5.6-2.6-5.6-6.9c0-1.8,0.3-4,0.6-6.4l0.3-1.9
		c0.4-2.4,0-3.2,0-3.2s0.6-0.3,2-0.3c2.9,0,3.2,1.1,2.8,3.7l-0.5,3c-0.3,2-0.5,3.5-0.5,4.7c0,3.1,1,4.1,2.6,4.1c1.8,0,3.3-2,4.1-5.1
		c0.1-1.5,0.3-3.3,0.5-4.9l0.3-1.9c0.4-2.4,0-3.2,0-3.2s0.6-0.3,2-0.3c2.9,0,3.2,1.1,2.8,3.7l-0.5,2.9c-0.4,2-0.5,3.6-0.5,4.8
		c0,2.9,0.9,4.1,2.7,4.1c2.7,0,4.8-4.1,4.8-10.1c0-2.8-0.5-4.9-0.5-4.9s0.9-0.5,1.7-0.5c1.4,0,1.9,0.5,1.9,2.8c0,3.7-1.4,8.7-3,11.2
		c-1.7,2.8-3.6,4.7-6.6,4.7C172.1,34.9,170.3,33.2,169.6,30.7z"/>
</g>
<g>
	<path class="st0" d="M20.4,16.4c0.9-0.3,2-0.6,3.2-0.3c0.6,0.1,1.2,0.4,1.7,0.8c0.5,0.4,0.9,1,1.1,1.5c0.5,1.1,0.7,2.3,0.7,3.3
		c0,0.5,0,1.1-0.1,1.6c0,0.3-0.1,0.5-0.1,0.8l-0.1,0.4l-0.1,0.3c-0.2,0.7-0.2,1.4-0.1,2c0.1,0.6,0.3,1,0.7,1.4
		c0.7,0.8,2.1,1.3,3.6,1.6c0.8,0.2,1.7,0.3,2.6,0.3c0.9-1.5,1.5-3.3,1.5-5.2c0-5.5-4.5-10-10-10c-2.5,0-4.7,0.9-6.5,2.4
		C19.1,17,19.7,16.6,20.4,16.4z"/>
	<path class="st0" d="M26.6,33.4c-1-0.6-2-1.4-2.8-2.5c-0.8-1.1-1.2-2.4-1.3-3.7c-0.1-1.3,0.2-2.4,0.6-3.5c0.6-1.5,1.1-3.2,0.9-4.4
		c-0.1-0.6-0.4-1.1-1-1.4c-0.6-0.3-1.4-0.4-2.3-0.3c-1.4,0.2-2.8,0.8-3.9,1.7C15.7,20.9,15,22.9,15,25c0,5.5,4.5,10,10,10
		c1.2,0,2.4-0.2,3.5-0.6C27.8,34.1,27.2,33.8,26.6,33.4z"/>
</g>
</svg>
