<?xml version="1.0" encoding="utf-8"?>
<!-- Generator: Adobe Illustrator 21.0.0, SVG Export Plug-In . SVG Version: 6.00 Build 0)  -->
<svg version="1.1" id="Layer_1" xmlns="http://www.w3.org/2000/svg" xmlns:xlink="http://www.w3.org/1999/xlink" x="0px" y="0px"
	 width="64px" height="64px" viewBox="0 0 64 64" enable-background="new 0 0 64 64" xml:space="preserve">
<g>
	<polygon fill="#FFFFFF" points="38.9,62 38.9,32.4 58.6,7.1 5,7.1 24.8,32.4 24.8,62 	"/>
	<path fill="#FFFFFF" d="M58.6,7.1L58.6,7.1 M58.6,7.1L38.9,32.4V62H24.8V32.4L5,7.1H58.6 M58.6,6.1L58.6,6.1H5
		c-0.4,0-0.7,0.2-0.9,0.6C3.9,7,4,7.4,4.2,7.7l19.5,25.1V62c0,0.6,0.4,1,1,1h14.1c0.6,0,1-0.4,1-1V32.8l19.5-25
		c0.2-0.2,0.2-0.4,0.2-0.7C59.6,6.6,59.2,6.1,58.6,6.1L58.6,6.1z M58.6,8.1L58.6,8.1L58.6,8.1L58.6,8.1z"/>
</g>
</svg>
