<?xml version="1.0" encoding="utf-8"?>
<!-- Generator: Adobe Illustrator 21.0.0, SVG Export Plug-In . SVG Version: 6.00 Build 0)  -->
<svg version="1.1" id="Layer_1" xmlns="http://www.w3.org/2000/svg" xmlns:xlink="http://www.w3.org/1999/xlink" x="0px" y="0px"
	 width="64px" height="64px" viewBox="0 0 64 64" style="enable-background:new 0 0 64 64;" xml:space="preserve">
<style type="text/css">
	.st0{fill:#29ABE2;}
</style>
<g>
	<path class="st0" d="M17.7,5.2c2.9-1.1,6.3-1.8,9.9-0.9c1.8,0.4,3.6,1.3,5.2,2.6c1.5,1.3,2.7,3,3.5,4.7c1.6,3.5,2,7,2.1,10.3
		c0,1.6-0.1,3.3-0.2,4.9c0,0.8-0.2,1.7-0.3,2.5l-0.2,1.3l-0.3,1c-0.5,2.3-0.6,4.4-0.3,6.2c0.3,1.8,1,3.1,2.2,4.3
		c2.2,2.4,6.5,4.2,11.2,5.1c2.6,0.5,5.3,0.8,8.1,0.9c2.8-4.7,4.5-10.2,4.5-16C63,14.9,49.1,1,32,1c-7.6,0-14.6,2.8-20,7.3
		C13.7,7.1,15.6,6,17.7,5.2z"/>
	<path class="st0" d="M36.8,58.2c-3.1-1.9-6.2-4.3-8.6-7.7c-2.4-3.3-3.8-7.6-4-11.5c-0.2-4,0.6-7.6,1.7-10.8
		c1.9-4.6,3.5-9.9,2.7-13.8c-0.4-1.9-1.2-3.4-3.1-4.4c-1.8-1-4.4-1.2-7-0.9c-4.3,0.6-8.6,2.5-12.2,5.3C3,19.4,1,25.5,1,32
		c0,17.1,13.9,31,31,31c3.8,0,7.4-0.7,10.7-1.9C40.7,60.3,38.8,59.3,36.8,58.2z"/>
</g>
</svg>
